<?xml version="1.0" encoding="UTF-8"?>
<svg version="1.1" xmlns="http://www.w3.org/2000/svg" width="512" height="512">
<path d="M0 0 C3.13830433 0.41804535 4.93335115 1.49440392 7.328125 3.51953125 C7.95468994 4.0410376 8.58125488 4.56254395 9.22680664 5.09985352 C9.89446045 5.66502686 10.56211426 6.2302002 11.25 6.8125 C16.75104124 11.38062717 22.31303616 15.81102139 28.0625 20.0625 C33.90837981 24.39588907 39.6245965 28.8580603 45.28540039 33.42993164 C49.9650699 37.19900246 54.71553886 40.86512954 59.5 44.5 C66.88297214 50.11304694 74.25512129 55.7611045 81.36865234 61.71484375 C82.9755329 63.03798778 82.9755329 63.03798778 84.79150391 64.06640625 C86.48828125 65.15625 86.48828125 65.15625 89 68 C89.58974709 73.92333546 87.83096244 79.81046551 86.20136321 85.44988948 C80.38412688 105.17322809 80.38412688 105.17322809 84.04746246 124.69789505 C90.67033189 135.52990934 100.57712456 144.1360387 109.8636384 152.62915349 C113.91634502 156.38449477 117.83313011 160.27696206 121.76730347 164.15562439 C129.2098013 171.45301603 136.76345572 178.62252578 144.36683166 185.75172657 C153.02799671 193.88431878 161.55329113 202.15365757 170.07088304 210.4360925 C187.56883274 227.44503147 205.227191 244.27879794 223 261 C228.31398204 256.51916516 228.31398204 256.51916516 233.36499023 251.74853516 C233.92504257 251.18840729 234.48509491 250.62827942 235.06211853 250.05117798 C235.63845535 249.46967987 236.21479218 248.88818176 236.80859375 248.2890625 C237.42017838 247.67606293 238.031763 247.06306335 238.66188049 246.43148804 C240.58947559 244.49835436 242.51353928 242.56175013 244.4375 240.625 C245.75432404 239.30315301 247.07137926 237.98153628 248.38867188 236.66015625 C251.59512373 233.44275701 254.79841629 230.22224319 258 227 C262.90251313 231.11588487 267.53447507 235.38595184 272.05871582 239.9115448 C272.73354397 240.58269626 273.40837213 241.25384773 274.10364962 241.94533712 C276.34815472 244.17889184 278.58913073 246.41595241 280.83007812 248.65307617 C282.44516518 250.26189223 284.06044006 251.87051976 285.67588806 253.47897339 C290.96459195 258.74671689 296.24803159 264.01972466 301.53125 269.29296875 C303.35466742 271.11233616 305.1781183 272.93167004 307.00160217 274.75097084 C314.58710954 282.31962418 322.17150678 289.88938507 329.75222015 297.46284008 C331.71452393 299.42323433 333.67683314 301.38362314 335.63916016 303.34399414 C336.12681691 303.83116715 336.61447366 304.31834017 337.11690789 304.820276 C345.01667821 312.71174596 352.92493256 320.59465615 360.83677131 328.47402462 C368.97724946 336.58136818 377.10994576 344.69644375 385.23563528 352.81861097 C389.79105173 357.37168078 394.34969053 361.92140818 398.91651917 366.46303368 C403.21318911 370.73637095 407.50017339 375.01919516 411.78006172 379.30933762 C413.34748027 380.87725029 414.91829277 382.44177897 416.49282646 384.00254631 C426.05949688 393.49026959 434.68518173 402.40635184 439.8125 415.125 C440.19019531 416.03507812 440.56789063 416.94515625 440.95703125 417.8828125 C447.07493149 436.16777276 445.65159584 456.69803606 437.5 474 C433.53508247 481.90641282 428.32745491 487.89752126 422 494 C421.05060547 494.99580078 421.05060547 494.99580078 420.08203125 496.01171875 C406.84503822 509.0149459 388.5749985 512.49896718 370.78515625 512.34765625 C360.0935985 512.09404876 351.64469582 509.99055583 342 505.5 C341.38318359 505.22285156 340.76636719 504.94570313 340.13085938 504.66015625 C326.8829885 498.02934238 316.01822487 484.15748981 305.67480469 473.78833008 C304.06735884 472.18060158 302.45969162 470.57309439 300.8518219 468.96578979 C296.52191715 464.63616998 292.19508558 460.30349104 287.86883068 455.97022462 C283.33430099 451.42941056 278.79690742 446.89146002 274.25982666 442.35319519 C266.65613948 434.74676084 259.05419715 427.13858773 251.45361328 419.52905273 C243.63090373 411.69714015 235.80712667 403.86629646 227.98193359 396.03686523 C227.498206 395.55287491 227.0144784 395.06888459 226.51609239 394.5702279 C224.08895367 392.14178399 221.66179419 389.71336083 219.23462439 387.28494799 C199.15319621 367.19318186 179.07543334 347.09775597 159 327 C159.96227584 325.87254916 160.92522794 324.74567547 161.88846779 323.61904812 C162.69272554 322.67766433 162.69272554 322.67766433 163.51323092 321.71726269 C165.03549559 319.95900153 166.60322945 318.27568445 168.25146484 316.63500977 C168.81159271 316.07495743 169.37172058 315.51490509 169.94882202 314.93788147 C170.53032013 314.36154465 171.11181824 313.78520782 171.7109375 313.19140625 C172.32393707 312.57982162 172.93693665 311.968237 173.56851196 311.33811951 C175.50164564 309.41052441 177.43824987 307.48646072 179.375 305.5625 C180.69684699 304.24567596 182.01846372 302.92862074 183.33984375 301.61132812 C186.55724299 298.40487627 189.77775681 295.20158371 193 292 C187.14476116 284.94491846 180.79075107 278.36352858 174.46582031 271.73339844 C173.84321383 271.07972982 173.22060734 270.42606121 172.57913399 269.75258446 C160.30000434 256.86506029 147.90390024 244.09222038 135.46338272 231.36057663 C127.5572137 223.26459414 119.69157697 215.13585997 111.91357422 206.91650391 C105.10797548 199.72487978 98.23494093 192.60623634 91.27443576 185.56431413 C87.60035871 181.84257315 83.96704077 178.09556389 80.41287994 174.25884247 C66.37962776 157.83727731 66.37962776 157.83727731 47.48747253 149.2613678 C38.59136742 149.00385506 30.1305758 151.24927608 21.71477509 153.90219879 C14.77762189 155.95228661 7.26796443 157.40889362 0 157 C-1.66796875 155.70703125 -1.66796875 155.70703125 -3.1875 153.8125 C-3.78820312 153.07386719 -4.38890625 152.33523437 -5.0078125 151.57421875 C-5.66523437 150.72472656 -6.32265625 149.87523437 -7 149 C-7.71929687 148.07832031 -8.43859375 147.15664062 -9.1796875 146.20703125 C-10.83852272 144.06142307 -12.48986581 141.91156972 -14.1328125 139.75390625 C-17.37312876 135.50170577 -20.65388254 131.28130524 -23.9375 127.0625 C-24.53763916 126.29115723 -25.13777832 125.51981445 -25.75610352 124.72509766 C-29.76134556 119.58115819 -33.78318262 114.45057477 -37.81616211 109.32836914 C-42.16145005 103.8051274 -46.4757468 98.25788267 -50.7800293 92.70263672 C-53.59418206 89.07436331 -56.42229905 85.46034228 -59.30078125 81.8828125 C-60.06551758 80.92761719 -60.06551758 80.92761719 -60.84570312 79.953125 C-61.79584212 78.76893046 -62.75125873 77.58894331 -63.71289062 76.4140625 C-65.9058357 73.67372072 -67.61106085 71.52932191 -68 68 C-66.05959122 65.55350551 -64.14877347 63.46641043 -61.93481445 61.2878418 C-61.27814285 60.6224086 -60.62147125 59.9569754 -59.94490051 59.27137756 C-57.76347241 57.06788244 -55.56418515 54.88324893 -53.36328125 52.69921875 C-51.84612373 51.17869526 -50.32970927 49.65743001 -48.81401062 48.13545227 C-45.63156034 44.94562066 -42.44021581 41.76503328 -39.24243164 38.59057617 C-35.1371371 34.51376872 -31.05469459 30.41492917 -26.97863483 26.30891705 C-23.85045849 23.16270255 -20.71050708 20.02845863 -17.56682396 16.89774513 C-16.05641348 15.39067824 -14.54973093 13.87986585 -13.04680824 12.36533165 C-10.94709363 10.25296694 -8.8321041 8.15721864 -6.7121582 6.06518555 C-5.77759796 5.11544357 -5.77759796 5.11544357 -4.82415771 4.14651489 C-3.06929016 2.43437195 -3.06929016 2.43437195 0 0 Z M4 54 C-1.94 59.94 -7.88 65.88 -14 72 C-7.18200402 81.14311985 -7.18200402 81.14311985 -0.22241211 90.17871094 C2.72934015 93.93764368 5.47045157 97.68357601 7.9609375 101.765625 C12.06770616 108.27846163 12.06770616 108.27846163 18 113 C25.22329997 114.1320881 33.18585036 112.52605428 40 110 C44.86411298 105.13588702 45.02006334 95.14980225 45.24902344 88.55664062 C45.15947862 85.71971592 45.15947862 85.71971592 42.9765625 82.671875 C40.3166287 80.5076244 37.75158457 78.73395356 34.78027344 77.05224609 C31.85503724 75.3232598 29.27698448 73.17713558 26.625 71.0625 C25.55007224 70.23970567 24.47321672 69.41942425 23.39453125 68.6015625 C19.05005927 65.28722305 14.76963927 61.89127843 10.49267578 58.49047852 C7.39827505 56.01457257 7.39827505 56.01457257 4 54 Z M256.32322693 286.55651855 C255.23401695 287.64905945 255.23401695 287.64905945 254.12280273 288.76367188 C252.89163979 289.99494812 252.89163979 289.99494812 251.63560486 291.25109863 C250.74394119 292.14792358 249.85227753 293.04474854 248.93359375 293.96875 C247.57065941 295.33380676 247.57065941 295.33380676 246.18019104 296.72644043 C243.75968031 299.15077694 241.34218698 301.57810106 238.92529297 304.00604248 C236.46046125 306.48108703 233.99281098 308.95331783 231.52539062 311.42578125 C226.68081879 316.28109147 221.83942624 321.13956116 217 326 C222.798299 333.08559128 229.30369702 339.46696907 235.76318359 345.94018555 C237.06159911 347.24487457 238.35982715 348.54975019 239.65788269 349.85479736 C243.90116443 354.11900149 248.14967579 358.37797594 252.3984375 362.63671875 C253.86497872 364.10731077 255.33148679 365.57793586 256.79796219 367.04859352 C263.68422508 373.95387538 270.5728735 380.85676646 277.46447599 387.75671929 C285.40791548 395.70994466 293.34299416 403.6713921 301.27112901 411.63987321 C307.41036125 417.8092702 313.55725434 423.97096653 319.70993102 430.12695533 C323.38038595 433.79975856 327.04747373 437.47578013 330.70649338 441.15997887 C334.14676005 444.62353991 337.59644364 448.07743732 341.05350685 451.52423096 C342.31790755 452.78813667 343.57891227 454.0554506 344.83617592 455.32645607 C346.55801154 457.06604855 348.29186625 458.79273983 350.02914429 460.51689148 C350.51924496 461.0179614 351.00934563 461.51903132 351.51429784 462.03528517 C357.79365739 468.20133186 364.89461474 471.13180575 373.625 471.3125 C383.17866297 471.21421129 389.29911139 468.38388907 396.2734375 461.9375 C402.36133352 455.10583388 403.36462274 447.44133041 403.2734375 438.578125 C402.17818195 424.24592376 388.54134058 414.39533915 379.01220703 404.8828125 C377.7022622 403.57151075 376.39252979 402.25999676 375.08299255 400.94828796 C371.54652564 397.40728454 368.00693016 393.86942434 364.46660471 390.33227921 C360.7593471 386.62756104 357.05453855 382.92039504 353.34933472 379.21362305 C347.13572817 372.99820102 340.92002414 366.78488243 334.703125 360.57275391 C327.50690745 353.38199456 320.31432207 346.18761718 313.1235801 338.9913826 C306.94781673 332.81109035 300.77011826 326.63273747 294.59077919 320.45602036 C290.90042492 316.76722795 287.21075651 313.07775635 283.52283096 309.38653564 C280.06295296 305.92378163 276.60066218 302.46345878 273.136446 299.00504494 C271.86206538 297.73199265 270.58854621 296.45807738 269.31592751 295.18326378 C267.58702345 293.45165154 265.85510855 291.72311015 264.12234497 289.99536133 C263.35763231 289.22730258 263.35763231 289.22730258 262.5774709 288.44372749 C259.66911938 284.81161478 259.66911938 284.81161478 256.32322693 286.55651855 Z " fill="#000000" transform="translate(68,0)"/>
<path d="M0 0 C1.11926376 0.00031723 1.11926376 0.00031723 2.26113892 0.00064087 C14.69271616 0.0357034 26.54816531 0.97497142 38.5625 4.375 C39.69776123 4.64223877 40.83302246 4.90947754 42.00268555 5.18481445 C53.10675517 8.20451103 59.29645716 13.87045187 67 22.1875 C68.13364901 23.37146128 69.26970769 24.55312015 70.40820312 25.73242188 C73.15471194 28.58758941 75.86706188 31.47160523 78.5625 34.375 C74.35910368 39.39502466 69.97188388 44.09585115 65.31958008 48.69970703 C64.62126572 49.39495483 63.92295135 50.09020264 63.20347595 50.80651855 C61.6986439 52.30423879 60.19268668 53.80082921 58.685709 55.29639053 C56.2998932 57.66471493 53.91772554 60.03665341 51.5365448 62.40963745 C44.76991481 69.15189533 37.99761844 75.88844049 31.22094727 82.62060547 C27.06658886 86.74818257 22.9171135 90.88061666 18.77060509 95.01607895 C17.19244478 96.58803555 15.61239002 98.15809263 14.03040504 99.7262001 C11.82143733 101.91594974 9.61870048 104.1117925 7.41723633 106.30908203 C6.76419525 106.95336151 6.11115417 107.59764099 5.43832397 108.26144409 C-0.10964657 113.82144827 -3.16674098 118.24592491 -3.6875 126.1875 C-3.58419934 131.24923249 -2.35866576 135.35845721 1.21484375 139.109375 C5.40491126 142.82994235 8.54903437 144.5174555 14.25 144.6875 C15.05824219 144.72488281 15.86648438 144.76226562 16.69921875 144.80078125 C24.82316187 143.59271877 30.122553 138.38211743 35.63085938 132.76074219 C36.39280609 131.99937958 37.15475281 131.23801697 37.93978882 130.45358276 C40.43821692 127.95238371 42.92220273 125.43734984 45.40625 122.921875 C47.14271929 121.17793988 48.88007794 119.43488991 50.61828613 117.69268799 C55.1776563 113.11808877 59.72488292 108.53160282 64.26965332 103.94250488 C68.91465749 99.2564897 73.57108974 94.58186086 78.2265625 89.90625 C87.34973694 80.74025275 96.46051222 71.56203382 105.5625 62.375 C106.67834943 63.33064815 107.7940858 64.28642832 108.90977478 65.24226379 C109.53111266 65.77449964 110.15245054 66.30673548 110.79261684 66.85509968 C123.52557113 77.78961886 133.93637476 87.19647237 137.13769531 104.16064453 C137.52436478 106.17621467 138.03329407 108.16735379 138.5546875 110.15234375 C143.45406344 131.15896005 142.51759718 156.76120206 136.5625 177.375 C136.26496826 178.47690674 136.26496826 178.47690674 135.96142578 179.60107422 C129.7640904 202.20631108 117.5549715 221.45273364 101.5625 238.375 C100.36753906 239.68404297 100.36753906 239.68404297 99.1484375 241.01953125 C87.48722767 253.33250054 73.18074511 262.80741997 57.5625 269.375 C56.44500366 269.8712085 56.44500366 269.8712085 55.30493164 270.37744141 C51.36529877 270.37393421 49.99179526 268.50903196 47.26957703 265.81315613 C46.6172963 265.13618179 45.96501556 264.45920746 45.29296875 263.76171875 C44.61196609 263.07696976 43.93096344 262.39222076 43.22932434 261.6867218 C41.79271488 260.23666575 40.36332064 258.7794311 38.94067383 257.31567383 C36.75512701 255.06777328 34.5489086 252.84196513 32.33789062 250.61914062 C30.94666024 249.20957231 29.5566436 247.79880479 28.16796875 246.38671875 C27.50556686 245.71581711 26.84316498 245.04491547 26.16069031 244.35368347 C25.55618546 243.72996353 24.9516806 243.10624359 24.32885742 242.46362305 C23.79322678 241.9143364 23.25759613 241.36504974 22.70573425 240.79911804 C21.5625 239.375 21.5625 239.375 21.5625 237.375 C22.68785156 237.0346875 23.81320312 236.694375 24.97265625 236.34375 C51.80183543 227.98186665 74.39541847 212.56844057 87.8359375 187.21875 C94.06018482 174.84113041 98.7322917 161.31458889 98.66015625 147.3203125 C98.65693359 146.21171875 98.65371094 145.103125 98.65039062 143.9609375 C98.64201172 142.81882813 98.63363281 141.67671875 98.625 140.5 C98.61823242 138.75203125 98.61823242 138.75203125 98.61132812 136.96875 C98.59958781 134.10411355 98.5831657 131.23958367 98.5625 128.375 C97.74469559 129.21278992 97.74469559 129.21278992 96.91036987 130.06750488 C91.72075596 135.37830937 86.51615457 140.67377812 81.29490471 145.95346832 C78.61234104 148.66708884 75.93553861 151.38588355 73.27197266 154.11816406 C70.69196119 156.76429778 68.09673674 159.39466094 65.49115372 162.01560974 C64.5092441 163.00844182 63.53254393 164.00645957 62.56173325 165.01014709 C53.37429589 174.49558503 42.61349002 182.23549743 29.5625 185.375 C28.8509375 185.55546875 28.139375 185.7359375 27.40625 185.921875 C9.82080985 188.72395063 -6.79767942 185.7043171 -21.4375 175.375 C-34.12965695 165.6982951 -41.85484933 153.1322543 -45.01953125 137.5 C-47.16109488 121.48830934 -44.83793976 104.87845897 -35.4375 91.375 C-29.65615878 84.5383733 -23.37444356 78.17367468 -17.02734375 71.8671875 C-16.17443253 71.01569122 -15.3215213 70.16419495 -14.44276428 69.28689575 C-11.75587771 66.60554337 -9.06551038 63.92771567 -6.375 61.25 C-4.53687656 59.41690009 -2.69898386 57.58356878 -0.86132812 55.75 C3.61062131 51.2889921 8.08542291 46.83086145 12.5625 42.375 C10.49361944 42.20067467 8.42437192 42.03070087 6.35498047 41.86254883 C5.20270966 41.76742508 4.05043884 41.67230133 2.86325073 41.57429504 C-1.28111209 41.3240638 -5.2036744 41.53495418 -9.3125 42.0625 C-10.45319946 42.20341064 -10.45319946 42.20341064 -11.61694336 42.34716797 C-30.0204442 44.80864821 -47.07101634 51.47457417 -61.4375 63.375 C-62.28699219 64.07367188 -63.13648438 64.77234375 -64.01171875 65.4921875 C-81.5313393 80.57032954 -94.83085324 103.1093552 -97.4375 126.375 C-97.83384316 134.03187827 -97.59156071 141.71353638 -97.4375 149.375 C-96.93535408 174.34679644 -96.93535408 174.34679644 -100.4375 186.375 C-114.38222103 179.99021821 -133.63296751 161.0058048 -140.44787598 147.35046387 C-142.96486814 140.28974579 -141.89009707 133.17654462 -140.11279297 126.07568359 C-139.49508149 123.60528431 -139.13210975 121.26754593 -138.87890625 118.73828125 C-136.46020586 96.79379767 -126.28562039 75.06665783 -113.4375 57.375 C-112.8703125 56.58351562 -112.303125 55.79203125 -111.71875 54.9765625 C-89.20360351 25.25261911 -56.49939529 6.57301939 -19.78735352 0.76098633 C-13.20460101 0.00248974 -6.61755562 -0.01734675 0 0 Z " fill="#000000" transform="translate(371.4375,-0.37499999999999994)"/>
<path d="M0 0 C1.1089438 0.94267042 2.21676064 1.88666667 3.32411194 2.83120728 C3.94115022 3.35675013 4.5581885 3.88229298 5.1939249 4.42376137 C7.73733385 6.64350264 10.11655664 9.00482029 12.49609375 11.3984375 C12.97450211 11.8782608 13.45291046 12.35808411 13.94581604 12.85244751 C15.44544879 14.35759458 16.94153128 15.86621214 18.4375 17.375 C19.46525983 18.40778595 20.49325285 19.44033991 21.52148438 20.47265625 C24.01701598 22.97910287 26.50938082 25.4886708 29 28 C27.37460841 32.11183173 24.40917326 34.85231955 21.3196106 37.89398193 C20.73269247 38.47978665 20.14577434 39.06559136 19.54107082 39.66914773 C17.57129959 41.63284225 15.59448301 43.58928899 13.61767578 45.54589844 C12.20471234 46.95174997 10.79221756 48.35807267 9.38015747 49.76483154 C6.33703038 52.79485089 3.29092501 55.82183323 0.24258804 58.84661102 C-4.57888331 63.63151476 -9.39166963 68.4250892 -14.20291138 73.22027588 C-27.88614291 86.85519276 -41.58101341 100.47838375 -55.28466797 114.09277344 C-62.85190329 121.61086928 -70.41190116 129.1361683 -77.96424115 136.66922784 C-82.74354707 141.43546208 -87.53172068 146.19254623 -92.32667899 150.94303083 C-95.31162469 153.90447457 -98.28813297 156.87428753 -101.26234818 159.84650421 C-102.64072008 161.22058998 -104.02252512 162.59124203 -105.40803528 163.95812988 C-107.30332548 165.82893124 -109.18576581 167.71181301 -111.06564331 169.5980835 C-111.61292426 170.13234884 -112.16020521 170.66661418 -112.72407043 171.21706939 C-119.00516382 177.58132912 -122.12724364 184.67419264 -122.3125 193.625 C-122.22965158 202.56342361 -119.77128965 208.94168421 -113.68359375 215.5 C-107.98396996 220.57808709 -100.5250677 222.6693379 -93 223 C-79.33021518 221.49649649 -71.58855568 212.8819014 -62.33300781 203.48071289 C-61.28461994 202.42355945 -60.23574233 201.3668915 -59.18641663 200.31066895 C-56.94166766 198.04952699 -54.69994336 195.78544459 -52.46045685 193.51909065 C-48.92025663 189.93732391 -45.37065456 186.36497427 -41.8192749 182.79429626 C-31.72699494 172.64458466 -21.64508678 162.48464478 -11.57763672 152.31030273 C-6.00680508 146.68048467 -0.42712863 141.05959042 5.1624825 135.4484157 C8.69738519 131.89885248 12.22091371 128.33848254 15.73654222 124.76983368 C17.91942147 122.55929894 20.11262125 120.35923916 22.30896187 118.16208649 C23.32762027 117.1388443 24.34195689 116.11127939 25.35167503 115.0792141 C26.72645752 113.67523771 28.11812728 112.28785595 29.51068115 110.90150452 C30.28565823 110.11932084 31.0606353 109.33713717 31.85909653 108.53125095 C34 107 34 107 36.10303116 107.09989071 C39.33195574 108.6320113 41.6180843 111.25561585 44.078125 113.78515625 C44.64956238 114.36083847 45.22099976 114.93652069 45.80975342 115.52964783 C47.63033802 117.36700319 49.44020568 119.21452132 51.25 121.0625 C52.48368253 122.31123138 53.71804978 123.55928669 54.953125 124.80664062 C57.97674655 127.8633102 60.99079921 130.92913526 64 134 C62.47236376 137.59950663 60.3402806 139.91805779 57.59501648 142.67913818 C56.66866898 143.61546082 55.74232147 144.55178345 54.78790283 145.51647949 C53.75804682 146.54723131 52.72807464 147.57786706 51.69799805 148.60839844 C50.61496792 149.69905183 49.5323414 150.79010613 48.4500885 151.88153076 C45.50814834 154.84542087 42.5596571 157.80270809 39.60926414 160.75818157 C37.7625165 162.60857568 35.91707334 164.46026077 34.07206154 166.31238556 C27.62399997 172.78495444 21.17022455 179.25176932 14.71166992 185.71386719 C8.7116911 191.71747045 2.7249356 197.73403964 -3.25583297 203.75677466 C-8.40378033 208.93956076 -13.56145098 214.11253896 -18.72649926 219.2782824 C-21.80522391 222.35779599 -24.87993255 225.44106405 -27.94469643 228.53447723 C-30.83513184 231.45132269 -33.73761075 234.35565075 -36.64922523 237.2513504 C-37.70759018 238.30791828 -38.76181459 239.36865538 -39.81119919 240.43414307 C-48.67991711 249.4304329 -58.35205031 256.94968007 -70.5 260.9375 C-71.6240625 261.31777344 -72.748125 261.69804687 -73.90625 262.08984375 C-92.67307171 267.61089105 -113.12340139 264.50214185 -130.08984375 255.375 C-136.24098842 251.82307893 -141.09874125 247.08195032 -146 242 C-146.66386719 241.36707031 -147.32773438 240.73414063 -148.01171875 240.08203125 C-161.0149459 226.84503822 -164.49896718 208.5749985 -164.34765625 190.78515625 C-164.09404876 180.0935985 -161.99055583 171.64469582 -157.5 162 C-157.08427734 161.07477539 -157.08427734 161.07477539 -156.66015625 160.13085938 C-150.39755147 147.61864278 -137.53340167 137.39178913 -127.71606445 127.60253906 C-126.31522981 126.2019872 -124.91461673 124.80121371 -123.51420593 123.40023804 C-119.74861702 119.63436469 -115.97997448 115.87156122 -112.21073556 112.10934162 C-108.25848885 108.1633878 -104.3091138 104.21456187 -100.35942078 100.26605225 C-92.89610971 92.80583711 -85.43025544 85.34817259 -77.96346205 77.89144301 C-69.45593613 69.39513247 -60.95128279 60.89594896 -52.44685805 52.39653444 C-34.96774476 34.92784614 -17.4850645 17.46273136 0 0 Z " fill="#000000" transform="translate(164,248)"/>
</svg>
