<?xml version="1.0" encoding="UTF-8"?>
<svg version="1.1" xmlns="http://www.w3.org/2000/svg" width="512" height="512">
<path d="M0 0 C0.80232056 0.00215515 1.60464111 0.0043103 2.43127441 0.00653076 C60.55269916 0.25557734 114.80659412 22.24174763 157.6015625 61.32421875 C159.36330083 62.9085382 161.14338787 64.40640998 163 65.875 C165.94983958 68.43152764 168.39755274 71.14259484 170.91796875 74.11328125 C172.17917676 75.57732271 173.47404543 77.01303632 174.80078125 78.41796875 C185.79475065 90.09529274 194.91996072 103.58174714 202.79931641 117.52099609 C203.79335609 119.27864988 204.80860561 121.02425429 205.82421875 122.76953125 C211.17517611 132.18899592 215.08156698 142.11095828 218.9296875 152.22265625 C219.26782471 153.10904785 219.60596191 153.99543945 219.9543457 154.90869141 C220.8125 157.3125 220.8125 157.3125 221.72265625 160.90234375 C222.5908233 163.55585017 222.5908233 163.55585017 225.31640625 164.34375 C226.32574219 164.4984375 227.33507812 164.653125 228.375 164.8125 C238.43061788 166.90291519 246.10132612 172.75185392 251.8125 181.3125 C257.08382433 190.41623534 256.39636087 200.14667479 256.34375 210.3125 C256.34644967 212.15755416 256.35033603 214.00260692 256.35534668 215.84765625 C256.3612194 219.70065963 256.352751 223.55329021 256.33398438 227.40625 C256.31119614 232.3219979 256.32433123 237.23687197 256.34827423 242.15258789 C256.36279269 245.95839918 256.35809863 249.76400647 256.34776306 253.56982422 C256.34511245 255.38134873 256.34830627 257.19289234 256.35768127 259.00439453 C256.41413533 272.9757585 255.25943629 282.6402108 245.16015625 293.1171875 C241.12252587 296.89280859 237.55852839 300.07020338 231.890625 300.5703125 C228.21369376 300.92702971 225.97895279 301.36425196 222.8125 303.3125 C220.17891894 307.63645542 219.05564747 312.69388613 217.6328125 317.51171875 C211.13554171 339.31342547 197.87231294 359.62849396 183.8125 377.3125 C183.09707031 378.22 182.38164062 379.1275 181.64453125 380.0625 C174.34642531 389.15606917 166.69973896 398.23661808 157.71484375 405.71484375 C156.35900658 406.85352425 155.04200854 408.03913047 153.75390625 409.25390625 C150.76180479 412.05369873 148.52308069 414.06170681 144.625 415.4375 C141.14137081 415.28267204 139.51871566 414.49250706 136.8125 412.3125 C134.99027973 409.91048236 134.80941037 408.61925626 134.83984375 405.59765625 C136.23400146 400.88887458 139.10638915 398.71296391 142.75 395.5625 C144.03196709 394.42414485 145.31187205 393.28346374 146.58984375 392.140625 C147.5321006 391.30159637 147.5321006 391.30159637 148.49339294 390.44561768 C151.09274525 388.05473006 153.58567428 385.57695186 156.07641602 383.07324219 C156.96643814 382.17966003 157.85646027 381.28607788 158.77345276 380.36541748 C159.78278114 379.34922333 159.78278114 379.34922333 160.8125 378.3125 C149.99162745 377.75345812 139.17424046 377.32861904 128.34181118 377.06900787 C123.3093189 376.94430178 118.28677126 376.7757477 113.26000977 376.50195312 C92.05394972 374.41366388 92.05394972 374.41366388 72.56936646 380.6026001 C67.50341586 386.16594448 64.63208405 392.37241523 62.03858948 399.36914062 C60.1734689 403.84656273 57.40221953 407.4360581 54.375 411.1875 C53.39617343 412.45238115 52.41815919 413.71789188 51.44140625 414.984375 C50.56579529 416.09429557 49.68955127 417.2037172 48.8125 418.3125 C48.12027344 419.20453125 47.42804688 420.0965625 46.71484375 421.015625 C42.82673707 425.96557601 38.76698372 430.77010896 34.6875 435.5625 C33.95080078 436.43092529 33.95080078 436.43092529 33.19921875 437.31689453 C29.89895782 441.16461832 26.43459189 444.76564444 22.8125 448.3125 C52.28880811 445.98963876 79.67362783 436.08251993 105.68798828 422.42236328 C106.38907715 422.0561084 107.09016602 421.68985352 107.8125 421.3125 C108.5019873 420.93335449 109.19147461 420.55420898 109.90185547 420.16357422 C112.87865618 418.83759322 114.75180904 419.35603408 117.8125 420.3125 C120.25 422.4375 120.25 422.4375 121.8125 425.3125 C121.875 428.875 121.875 428.875 120.8125 432.3125 C99.99413444 451.69377689 62.94120956 459.86925417 35.8125 464.3125 C35.1417041 464.42964355 34.4709082 464.54678711 33.77978516 464.66748047 C-23.78020557 474.37865464 -86.12437182 458.48843477 -133.62841797 425.35253906 C-142.23414938 419.22510218 -150.18076022 412.42029153 -157.9765625 405.30078125 C-159.73830083 403.7164618 -161.51838787 402.21859002 -163.375 400.75 C-166.32483958 398.19347236 -168.77255274 395.48240516 -171.29296875 392.51171875 C-172.55417676 391.04767729 -173.84904543 389.61196368 -175.17578125 388.20703125 C-186.16975065 376.52970726 -195.29496072 363.04325286 -203.17431641 349.10400391 C-204.16835609 347.34635012 -205.18360561 345.60074571 -206.19921875 343.85546875 C-211.55017611 334.43600408 -215.45656698 324.51404172 -219.3046875 314.40234375 C-219.64282471 313.51595215 -219.98096191 312.62956055 -220.3293457 311.71630859 C-221.1875 309.3125 -221.1875 309.3125 -222.09765625 305.72265625 C-222.9658233 303.06914983 -222.9658233 303.06914983 -225.69140625 302.28125 C-226.70074219 302.1265625 -227.71007812 301.971875 -228.75 301.8125 C-238.80561788 299.72208481 -246.47632612 293.87314608 -252.1875 285.3125 C-257.45882433 276.20876466 -256.77136087 266.47832521 -256.71875 256.3125 C-256.72144967 254.46744584 -256.72533603 252.62239308 -256.73034668 250.77734375 C-256.7362194 246.92434037 -256.727751 243.07170979 -256.70898438 239.21875 C-256.68619614 234.3030021 -256.69933123 229.38812803 -256.72327423 224.47241211 C-256.73779269 220.66660082 -256.73309863 216.86099353 -256.72276306 213.05517578 C-256.72011245 211.24365127 -256.72330627 209.43210766 -256.73268127 207.62060547 C-256.78913533 193.6492415 -255.63443629 183.9847892 -245.53515625 173.5078125 C-241.52768276 169.76039137 -237.95565344 166.49229887 -232.30078125 166.125 C-228.48838924 165.81886062 -226.42004882 165.42239335 -223.1875 163.3125 C-219.72017834 157.46673232 -218.09499169 150.60949509 -216.11425781 144.15380859 C-207.04238841 116.34073795 -187.20497307 89.29914333 -166.1875 69.3125 C-165.40375 68.52875 -164.62 67.745 -163.8125 66.9375 C-162.94625 66.07125 -162.08 65.205 -161.1875 64.3125 C-160.25357422 63.32636719 -160.25357422 63.32636719 -159.30078125 62.3203125 C-143.38548909 45.80498239 -143.38548909 45.80498239 -133.1875 45.3125 C-130.25 46.75 -130.25 46.75 -128.1875 49.3125 C-127.34172886 54.64085821 -127.34172886 54.64085821 -128.1875 57.3125 C-131.47134816 61.01568848 -135.23603001 64.06206268 -139.0625 67.1875 C-144.37392741 71.5857692 -149.289265 76.28987424 -154.1328125 81.1953125 C-154.81609619 81.88310791 -155.49937988 82.57090332 -156.20336914 83.27954102 C-157.86708575 84.95490218 -159.52840024 86.63256885 -161.1875 88.3125 C-150.33144398 88.80114836 -139.47803576 89.17317012 -128.61318684 89.40055561 C-123.566194 89.50976234 -118.52676596 89.65748765 -113.48413086 89.89672852 C-92.58328314 91.89819668 -92.58328314 91.89819668 -73.15216064 86.33862305 C-68.60336074 81.55501799 -66.30487529 76.23343879 -64.25260925 70.03704834 C-62.43694999 65.39259387 -59.44959 61.62089347 -56.4375 57.6875 C-55.34920063 56.21171844 -54.26180892 54.7352666 -53.17578125 53.2578125 C-49.32930888 48.14616489 -45.33690551 43.18141521 -41.1875 38.3125 C-40.18480076 37.12377811 -39.18220316 35.93497047 -38.1796875 34.74609375 C-37.12050374 33.49679177 -36.06061357 32.24808834 -35 31 C-34.51265381 30.42475586 -34.02530762 29.84951172 -33.52319336 29.25683594 C-30.2410729 25.42482269 -26.79262514 21.84285217 -23.1875 18.3125 C-48.96437302 20.34382967 -74.87779473 27.82906659 -97.73608398 39.96240234 C-101.96948269 42.12081669 -104.61271359 42.75751987 -109.1875 41.3125 C-111.625 39.1875 -111.625 39.1875 -113.1875 36.3125 C-113.25 32.75 -113.25 32.75 -112.1875 29.3125 C-86.10953326 5.00172148 -33.919327 -0.16600142 0 0 Z M21.8125 17.3125 C25.28568631 21.42548379 28.83902328 25.42791824 32.5 29.375 C40.02496547 37.64123072 46.80331396 46.47358556 53.41023254 55.48490906 C54.50546705 56.97155841 55.61350436 58.44891582 56.73783875 59.91368103 C59.88690566 64.14469853 62.21067357 68.0251045 63.9855957 73.00439453 C66.67638 79.75091958 69.62018219 85.24087503 75.8125 89.3125 C88.43053269 93.49619702 103.59943812 91.46495715 116.64013672 90.82312012 C121.73335097 90.59645127 126.82895859 90.49726015 131.92578125 90.38671875 C141.89434455 90.15201434 151.85220752 89.77755076 161.8125 89.3125 C160.87692211 88.21361913 159.94026586 87.11565634 159.00317383 86.01806641 C158.48169266 85.40653717 157.96021149 84.79500793 157.42292786 84.16494751 C144.14729466 68.89421461 128.13946913 56.64788509 110.8125 46.3125 C110.1417041 45.9093457 109.4709082 45.50619141 108.77978516 45.09082031 C82.91810836 29.70273822 52.09813581 18.54362341 21.8125 17.3125 Z M-5.22265625 23.08203125 C-6.02759521 23.88286133 -6.83253418 24.68369141 -7.66186523 25.50878906 C-8.51594971 26.37213867 -9.37003418 27.23548828 -10.25 28.125 C-11.11890869 28.99995117 -11.98781738 29.87490234 -12.88305664 30.77636719 C-18.72540421 36.70946006 -24.10323844 42.71825098 -29.1875 49.3125 C-30.08491094 50.40143982 -30.98622765 51.48716811 -31.890625 52.5703125 C-41.28421605 63.90278314 -50.59013013 76.11776025 -57.1875 89.3125 C-19.5675 89.3125 18.0525 89.3125 56.8125 89.3125 C48.49246017 75.04957458 39.2037797 62.08578625 28.8125 49.3125 C28.12099854 48.46220215 28.12099854 48.46220215 27.41552734 47.59472656 C21.35079223 40.19891393 14.92228947 33.22884632 8.1875 26.4375 C7.48794189 25.72867676 6.78838379 25.01985352 6.06762695 24.28955078 C5.41366943 23.63970215 4.75971191 22.98985352 4.0859375 22.3203125 C3.50247559 21.73910645 2.91901367 21.15790039 2.31787109 20.55908203 C-1.03209434 17.78501075 -2.66829908 20.53558668 -5.22265625 23.08203125 Z M-186.21493721 120.25610542 C-187.53672844 123.05091143 -189.08758605 125.69966061 -190.640625 128.37109375 C-191.58407163 130.15821802 -192.51658414 131.95116186 -193.4375 133.75 C-194.1814502 135.18690186 -194.1814502 135.18690186 -194.94042969 136.65283203 C-202.44605197 149.91412209 -202.44605197 149.91412209 -206.1875 164.3125 C-174.1775 164.3125 -142.1675 164.3125 -109.1875 164.3125 C-104.2375 150.9475 -104.2375 150.9475 -99.1875 137.3125 C-95.02114282 127.73528933 -90.84452708 118.22579703 -85.96484375 108.9921875 C-85.04750173 107.31846471 -85.04750173 107.31846471 -85.1875 105.3125 C-96.86120428 104.91748761 -108.53330496 104.61601435 -120.21234608 104.43169308 C-125.6367322 104.34319035 -131.05652823 104.22334102 -136.47827148 104.0300293 C-141.71772899 103.8444002 -146.95279471 103.74350196 -152.1952877 103.69958687 C-154.18810916 103.66832687 -156.1807064 103.60726479 -158.1716404 103.51508904 C-173.5209216 102.83314392 -179.61048638 106.22252668 -186.21493721 120.25610542 Z M-67.1875 105.3125 C-76.84144939 124.35117865 -76.84144939 124.35117865 -85.3125 143.8125 C-85.76625 144.92496094 -86.22 146.03742188 -86.6875 147.18359375 C-89.00126594 152.94062675 -90.66403686 158.21864746 -92.1875 164.3125 C-31.4675 164.3125 29.2525 164.3125 91.8125 164.3125 C89.85826677 157.79838925 87.89359298 151.53271606 85.375 145.25 C85.04226074 144.41726562 84.70952148 143.58453125 84.36669922 142.7265625 C79.15857029 129.97119877 72.97128099 117.63006199 66.8125 105.3125 C22.5925 105.3125 -21.6275 105.3125 -67.1875 105.3125 Z M84.8125 105.3125 C85.03907193 105.82021564 85.26564386 106.32793129 85.49908161 106.85103226 C86.54161093 109.18841793 87.58294597 111.52633387 88.62426758 113.86425781 C88.98059517 114.66268097 89.33692276 115.46110413 89.70404816 116.28372192 C92.76500733 123.15977214 95.6735565 130.08641872 98.5 137.0625 C98.94666016 138.15175781 99.39332031 139.24101562 99.85351562 140.36328125 C103.07637986 148.28713033 105.92923378 156.23935459 108.8125 164.3125 C140.8225 164.3125 172.8325 164.3125 205.8125 164.3125 C200.87062831 150.07353435 200.87062831 150.07353435 194.75 136.5 C194.36134766 135.69498047 193.97269531 134.88996094 193.57226562 134.06054688 C192.28639123 131.41839655 192.28639123 131.41839655 190.63891602 128.74658203 C189.08682084 125.82828626 188.16170245 123.32150227 187.17163086 120.20263672 C184.69087196 113.74452348 181.92182876 108.86449537 175.8125 105.3125 C162.29885923 101.41661343 146.5939404 103.35545022 132.73571777 103.93920898 C127.33382659 104.14503801 121.93008512 104.23540011 116.52539062 104.3359375 C105.94951582 104.54947459 95.38194946 104.89005729 84.8125 105.3125 Z M-236.5625 187.875 C-240.66664345 194.03121518 -241.30801353 199.55550379 -241.33276367 206.92529297 C-241.33914352 208.22038788 -241.34552338 209.51548279 -241.35209656 210.849823 C-241.35362552 212.25144412 -241.35473933 213.65306574 -241.35546875 215.0546875 C-241.35868631 216.50668368 -241.36205075 217.95867954 -241.36555481 219.41067505 C-241.37152752 222.44843293 -241.37339661 225.48616244 -241.37280273 228.52392578 C-241.37270118 232.39946872 -241.38635428 236.27482817 -241.40357494 240.15032768 C-241.41474122 243.14792706 -241.41672053 246.1454827 -241.41619301 249.14310074 C-241.41736612 250.57111366 -241.42174997 251.99912797 -241.42952538 253.42712021 C-241.59346411 267.79368225 -241.59346411 267.79368225 -235.1875 280.3125 C-229.75911482 285.19804666 -225.90770449 286.61148344 -218.65860367 286.57256222 C-217.89324016 286.57636789 -217.12787665 286.58017356 -216.3393203 286.58409455 C-213.75969475 286.59444886 -211.18028767 286.59049712 -208.60064697 286.58665466 C-206.73848433 286.59110499 -204.87632359 286.59641835 -203.01416564 286.60252339 C-197.88512207 286.61673853 -192.75613899 286.61836601 -187.62707853 286.61792648 C-182.10000568 286.61957159 -176.57295797 286.63263238 -171.04589844 286.64411926 C-158.95507502 286.66699206 -146.86426913 286.6748923 -134.77342701 286.67994571 C-127.22669271 286.68320003 -119.67996353 286.6897209 -112.13323212 286.6969471 C-91.24649889 286.71651588 -70.35976911 286.73299978 -49.47302628 286.73582363 C-48.47074574 286.73596472 -48.47074574 286.73596472 -47.44821711 286.73610866 C-44.74030708 286.73648715 -42.03239705 286.73685115 -39.32448702 286.73721164 C-37.28631166 286.73748336 -35.2481363 286.73776004 -33.20996094 286.73803711 C-32.19972402 286.73816914 -32.19972402 286.73816914 -31.16907827 286.73830384 C-10.00818557 286.74120921 11.15261578 286.76330365 32.31347656 286.79956055 C56.08218039 286.84028457 79.85083152 286.86396259 103.61957765 286.86428314 C116.20655551 286.86486833 128.79341581 286.87339966 141.38036346 286.90228081 C152.0973848 286.92675789 162.81424569 286.93410239 173.5312874 286.91903328 C179.00064337 286.91184942 184.46968229 286.91278554 189.93900299 286.93544388 C194.94546215 286.95598621 199.95135958 286.95347778 204.95781234 286.93256903 C206.769402 286.92906506 208.5810318 286.93402242 210.3925688 286.94827347 C223.01658822 287.23888654 223.01658822 287.23888654 233.8125 281.3125 C239.91884884 274.72407099 240.92812002 268.5266236 240.95776367 259.69970703 C240.96414352 258.40461212 240.97052338 257.10951721 240.97709656 255.775177 C240.97862552 254.37355588 240.97973933 252.97193426 240.98046875 251.5703125 C240.98368631 250.11831632 240.98705075 248.66632046 240.99055481 247.21432495 C240.99652752 244.17656707 240.99839661 241.13883756 240.99780273 238.10107422 C240.99770118 234.22553128 241.01135428 230.35017183 241.02857494 226.47467232 C241.03974122 223.47707294 241.04172053 220.4795173 241.04119301 217.48189926 C241.04236612 216.05388634 241.04674997 214.62587203 241.05452538 213.19787979 C241.21846411 198.83131775 241.21846411 198.83131775 234.8125 186.3125 C229.38411482 181.42695334 225.53270449 180.01351656 218.28360367 180.05243778 C217.51824016 180.04863211 216.75287665 180.04482644 215.9643203 180.04090545 C213.38469475 180.03055114 210.80528767 180.03450288 208.22564697 180.03834534 C206.36348433 180.03389501 204.50132359 180.02858165 202.63916564 180.02247661 C197.51012207 180.00826147 192.38113899 180.00663399 187.25207853 180.00707352 C181.72500568 180.00542841 176.19795797 179.99236762 170.67089844 179.98088074 C158.58007502 179.95800794 146.48926913 179.9501077 134.39842701 179.94505429 C126.85169271 179.94179997 119.30496353 179.9352791 111.75823212 179.9280529 C90.87149889 179.90848412 69.98476911 179.89200022 49.09802628 179.88917637 C48.09574574 179.88903528 48.09574574 179.88903528 47.07321711 179.88889134 C44.36530708 179.88851285 41.65739705 179.88814885 38.94948702 179.88778836 C36.91131166 179.88751664 34.8731363 179.88723996 32.83496094 179.88696289 C32.16146966 179.88687487 31.48797838 179.88678685 30.79407827 179.88669616 C9.63318557 179.88379079 -11.52761578 179.86169635 -32.68847656 179.82543945 C-56.45718039 179.78471543 -80.22583152 179.76103741 -103.99457765 179.76071686 C-116.58155551 179.76013167 -129.16841581 179.75160034 -141.75536346 179.72271919 C-152.4723848 179.69824211 -163.18924569 179.69089761 -173.9062874 179.70596672 C-179.37564337 179.71315058 -184.84468229 179.71221446 -190.31400299 179.68955612 C-195.32046215 179.66901379 -200.32635958 179.67152222 -205.33281234 179.69243097 C-207.144402 179.69593494 -208.9560318 179.69097758 -210.7675688 179.67672653 C-221.3969252 179.59849343 -228.8743122 179.57985001 -236.5625 187.875 Z M-206.1875 302.3125 C-201.24562831 316.55146565 -201.24562831 316.55146565 -195.125 330.125 C-194.54202148 331.3325293 -194.54202148 331.3325293 -193.94726562 332.56445312 C-192.66139123 335.20660345 -192.66139123 335.20660345 -191.01391602 337.87841797 C-189.46182084 340.79671374 -188.53670245 343.30349773 -187.54663086 346.42236328 C-185.06587196 352.88047652 -182.29682876 357.76050463 -176.1875 361.3125 C-162.67385923 365.20838657 -146.9689404 363.26954978 -133.11071777 362.68579102 C-127.70882659 362.47996199 -122.30508512 362.38959989 -116.90039062 362.2890625 C-106.32451582 362.07552541 -95.75694946 361.73494271 -85.1875 361.3125 C-86.58783586 357.78265959 -88.07104037 354.31829613 -89.65625 350.8671875 C-90.14609375 349.78695312 -90.6359375 348.70671875 -91.140625 347.59375 C-92.13418225 345.40591687 -93.13368394 343.22076814 -94.140625 341.0390625 C-99.87726677 328.32382559 -104.29891725 315.51167342 -109.1875 302.3125 C-141.1975 302.3125 -173.2075 302.3125 -206.1875 302.3125 Z M-92.1875 302.3125 C-90.23326677 308.82661075 -88.26859298 315.09228394 -85.75 321.375 C-85.25089111 322.62410156 -85.25089111 322.62410156 -84.74169922 323.8984375 C-79.53357029 336.65380123 -73.34628099 348.99493801 -67.1875 361.3125 C-22.9675 361.3125 21.2525 361.3125 66.8125 361.3125 C76.46644939 342.27382135 76.46644939 342.27382135 84.9375 322.8125 C85.39125 321.70003906 85.845 320.58757812 86.3125 319.44140625 C88.62626594 313.68437325 90.28903686 308.40635254 91.8125 302.3125 C31.0925 302.3125 -29.6275 302.3125 -92.1875 302.3125 Z M108.8125 302.3125 C105.5125 311.2225 102.2125 320.1325 98.8125 329.3125 C94 340.25 94 340.25 91.91796875 344.71484375 C90.24403676 348.30621929 88.69839672 351.9396418 87.1809082 355.59985352 C86.73584427 356.67211685 86.29078033 357.74438019 85.83222961 358.84913635 C85.49571884 359.66204636 85.15920807 360.47495636 84.8125 361.3125 C96.50375306 361.66087088 108.19376233 361.92696947 119.88915825 362.08968258 C125.3208804 362.16780385 130.74903985 362.27363074 136.17871094 362.4440918 C141.42454759 362.60774054 146.66697204 362.69688701 151.91516495 362.73565865 C153.91144685 362.76326342 155.90755246 362.81718197 157.90237045 362.89845085 C168.33444135 363.65974655 168.33444135 363.65974655 177.62677765 359.84152222 C180.77331189 356.28708476 182.98073806 352.34444385 184.98376274 348.06088734 C186.02873531 345.85630829 187.29809021 343.83363498 188.625 341.7890625 C189.36452931 340.51114938 190.09386465 339.22727858 190.8125 337.9375 C191.21130371 337.22343994 191.61010742 336.50937988 192.02099609 335.77368164 C201.27742136 319.68191725 201.27742136 319.68191725 205.8125 302.3125 C173.8025 302.3125 141.7925 302.3125 108.8125 302.3125 Z M-162.1875 377.3125 C-161.25192211 378.41138087 -160.31526586 379.50934366 -159.37817383 380.60693359 C-158.85669266 381.21846283 -158.33521149 381.82999207 -157.79792786 382.46005249 C-144.52229466 397.73078539 -128.51446913 409.97711491 -111.1875 420.3125 C-110.5167041 420.7156543 -109.8459082 421.11880859 -109.15478516 421.53417969 C-84.24541243 436.35562671 -51.62866867 449.83718764 -22.1875 449.3125 C-25.66068631 445.19951621 -29.21402328 441.19708176 -32.875 437.25 C-47.87644602 420.7707996 -60.79505231 402.33411258 -72.04345703 383.13330078 C-72.42099121 382.53243652 -72.79852539 381.93157227 -73.1875 381.3125 C-73.5362468 380.62431183 -73.88499359 379.93612366 -74.24430847 379.2270813 C-76.73271592 376.77531147 -78.6165438 376.84052328 -82.01843262 376.81481934 C-83.20849915 376.83639099 -83.20849915 376.83639099 -84.42260742 376.85839844 C-85.26185257 376.85781433 -86.10109772 376.85723022 -86.96577454 376.85662842 C-89.74192558 376.8594169 -92.51700512 376.89054437 -95.29296875 376.921875 C-97.21681634 376.92933469 -99.14067152 376.9350289 -101.06452942 376.93902588 C-106.12984165 376.95430365 -111.19469559 376.99360397 -116.25982666 377.0378418 C-121.427712 377.07874827 -126.59567133 377.09702701 -131.76367188 377.1171875 C-141.90514935 377.16009611 -152.04628658 377.2283734 -162.1875 377.3125 Z M-57.1875 377.3125 C-48.86746017 391.57542542 -39.5787797 404.53921375 -29.1875 417.3125 C-28.72649902 417.87936523 -28.26549805 418.44623047 -27.79052734 419.03027344 C-19.54626875 429.08396757 -10.49034573 438.24062637 -1.1875 447.3125 C1.99296187 445.90615534 4.14786362 444.23401657 6.60546875 441.78515625 C7.31356689 441.08116699 8.02166504 440.37717773 8.7512207 439.65185547 C9.49331787 438.90049316 10.23541504 438.14913086 11 437.375 C11.76594482 436.6030127 12.53188965 435.83102539 13.32104492 435.03564453 C18.88099384 429.37815265 23.9455611 423.57757771 28.8125 417.3125 C29.71287875 416.22125445 30.61675103 415.13288531 31.5234375 414.046875 C40.91269332 402.71512222 50.21659503 390.50430994 56.8125 377.3125 C19.1925 377.3125 -18.4275 377.3125 -57.1875 377.3125 Z " fill="#000000" transform="translate(256.1875,22.6875)"/>
<path d="M0 0 C3.10535467 0.62798453 4.07365961 1.99580364 6.10546875 4.42578125 C7.40327116 7.03142714 8.36924322 9.73091177 9.33984375 12.47265625 C9.62273254 13.24385803 9.90562134 14.01505981 10.19708252 14.80963135 C11.09370157 17.26134251 11.97474639 19.71832055 12.85546875 22.17578125 C13.46252069 23.84412185 14.07058268 25.5120953 14.6796875 27.1796875 C16.16667994 31.25755911 17.63973508 35.34022283 19.10546875 39.42578125 C19.47833008 38.38647461 19.85119141 37.34716797 20.23535156 36.27636719 C21.62555436 32.4107182 23.03052011 28.55057347 24.43994141 24.69189453 C25.04715628 23.02310612 25.65039172 21.35286401 26.24951172 19.68115234 C27.11286562 17.27435648 27.99053598 14.87320282 28.87109375 12.47265625 C29.13480774 11.72771912 29.39852173 10.98278198 29.67022705 10.215271 C31.19125876 6.11719417 32.58867522 3.22858889 36.10546875 0.42578125 C38.10546875 -0.140625 38.10546875 -0.140625 40.10546875 -0.13671875 C41.09546875 -0.16958984 41.09546875 -0.16958984 42.10546875 -0.203125 C45.23058407 0.77957728 46.24396658 2.77140073 48.10546875 5.42578125 C49.21777671 7.99760065 50.20465934 10.49526817 51.12109375 13.1328125 C51.3817865 13.85820724 51.64247925 14.58360199 51.91107178 15.33097839 C52.73504036 17.63026095 53.54541675 19.93406377 54.35546875 22.23828125 C54.91447101 23.80565752 55.47435788 25.37271859 56.03515625 26.93945312 C57.40218847 30.76465849 58.75705824 34.59397405 60.10546875 38.42578125 C62.23222047 35.23565368 63.2963868 32.3606163 64.56640625 28.74609375 C65.04264365 27.41134229 65.51921675 26.07671058 65.99609375 24.7421875 C66.73941636 22.64803784 67.47971032 20.55294797 68.21386719 18.45556641 C68.92687473 16.42421269 69.65205092 14.39752669 70.37890625 12.37109375 C70.80606934 11.15953613 71.23323242 9.94797852 71.67333984 8.69970703 C73.11635712 5.40088984 74.66233665 3.0571987 77.10546875 0.42578125 C79.85810066 -0.43979246 82.3007792 -0.1834341 85.10546875 0.42578125 C87.60546875 1.98828125 87.60546875 1.98828125 89.10546875 4.42578125 C89.98981947 11.46106962 87.25812267 17.4505786 84.8359375 23.96484375 C84.39913162 25.16386322 83.96232574 26.36288269 83.51228333 27.59823608 C82.58855121 30.12685306 81.66077715 32.65347481 80.7253418 35.17773438 C79.53052188 38.40257727 78.35021481 41.63248831 77.17489147 44.86448097 C76.04701757 47.96261831 74.91014228 51.05743761 73.7734375 54.15234375 C73.35144577 55.3076358 72.92945404 56.46292786 72.49467468 57.65322876 C71.89439201 59.27048355 71.89439201 59.27048355 71.28198242 60.92041016 C70.7590284 62.33768906 70.7590284 62.33768906 70.22550964 63.78359985 C67.22274055 70.86714535 67.22274055 70.86714535 64.10546875 72.42578125 C56.66375897 72.89827076 56.66375897 72.89827076 54.57804871 71.13310242 C52.12949054 68.29422418 51.18532335 64.75073614 49.96875 61.2578125 C49.54229439 60.06559334 49.54229439 60.06559334 49.10722351 58.84928894 C48.20279438 56.31505359 47.31026147 53.776812 46.41796875 51.23828125 C45.80611847 49.51730064 45.19349723 47.79659392 44.58007812 46.07617188 C43.07958367 41.86249858 41.5897431 37.645194 40.10546875 33.42578125 C35.5852891 44.77502042 35.5852891 44.77502042 31.4453125 56.265625 C31.1870166 57.02818604 30.9287207 57.79074707 30.66259766 58.57641602 C30.1766927 60.02791768 29.70062529 61.48276052 29.23583984 62.94116211 C27.87433054 67.00150078 26.56660859 69.82503776 23.10546875 72.42578125 C21.10546875 72.9921875 21.10546875 72.9921875 19.10546875 72.98828125 C18.11546875 73.02115234 18.11546875 73.02115234 17.10546875 73.0546875 C14.02705419 72.08667042 12.96030806 70.00580317 11.10546875 67.42578125 C9.87190247 64.77687073 9.87190247 64.77687073 8.83129883 61.90454102 C8.23597099 60.28244469 8.23597099 60.28244469 7.62861633 58.62757874 C7.21492294 57.46914963 6.80122955 56.31072052 6.375 55.1171875 C5.93911057 53.91770981 5.50322113 52.71823212 5.05412292 51.48240662 C4.13602472 48.9496811 3.22170299 46.41597049 2.3137207 43.87963867 C1.15380023 40.64028531 -0.01913465 37.40584155 -1.19661999 34.17283726 C-2.32430553 31.07301976 -3.44323758 27.97005442 -4.5625 24.8671875 C-4.98226608 23.71078262 -5.40203217 22.55437775 -5.83451843 21.3629303 C-6.41566154 19.73610573 -6.41566154 19.73610573 -7.00854492 18.07641602 C-7.34955734 17.12775162 -7.69056976 16.17908722 -8.04191589 15.20167542 C-10.4121994 7.48464792 -10.4121994 7.48464792 -8.51953125 3.61328125 C-5.85373738 0.02471258 -4.51480908 0.24564627 0 0 Z " fill="#000000" transform="translate(104.89453125,219.57421875)"/>
<path d="M0 0 C3.12511532 0.98270228 4.13849783 2.97452573 6 5.62890625 C7.11230796 8.20072565 8.09919059 10.69839317 9.015625 13.3359375 C9.27631775 14.06133224 9.5370105 14.78672699 9.80560303 15.53410339 C10.62957161 17.83338595 11.439948 20.13718877 12.25 22.44140625 C12.80900226 24.00878252 13.36888913 25.57584359 13.9296875 27.14257812 C15.29671972 30.96778349 16.65158949 34.79709905 18 38.62890625 C20.17092252 35.37252247 21.40214048 32.09189167 22.71484375 28.44140625 C23.24129125 27.00642043 23.76799172 25.5715274 24.29492188 24.13671875 C25.11878657 21.87975727 25.94002554 19.62191754 26.7565918 17.36230469 C27.54789312 15.17759907 28.34942335 12.99686353 29.15234375 10.81640625 C29.51343483 9.80380737 29.51343483 9.80380737 29.88182068 8.77075195 C32.17836828 2.56886043 32.17836828 2.56886043 35 0.62890625 C42.0176903 -0.15083712 42.0176903 -0.15083712 44.92504883 2.15698242 C47.65389079 5.40789722 48.82946839 8.70721246 50.234375 12.67578125 C50.65870819 13.83258392 50.65870819 13.83258392 51.09161377 15.01275635 C51.98823282 17.46446751 52.86927764 19.92144555 53.75 22.37890625 C54.35705194 24.04724685 54.96511393 25.7152203 55.57421875 27.3828125 C57.06121119 31.46068411 58.53426633 35.54334783 60 39.62890625 C60.37286133 38.58959961 60.74572266 37.55029297 61.12988281 36.47949219 C62.52008561 32.6138432 63.92505136 28.75369847 65.33447266 24.89501953 C65.94168753 23.22623112 66.54492297 21.55598901 67.14404297 19.88427734 C68.00739687 17.47748148 68.88506723 15.07632782 69.765625 12.67578125 C70.02933899 11.93084412 70.29305298 11.18590698 70.5647583 10.418396 C72.08476688 6.32307575 73.47910377 3.42374322 77 0.62890625 C80.42708053 -0.20648574 83.83432242 -0.0479388 86.9375 1.75390625 C88.8064012 5.05196719 89.35701246 8.06070772 88.50534058 11.80172729 C87.67479581 14.40741702 86.76008293 16.96722519 85.80859375 19.53125 C85.46627213 20.48600723 85.1239505 21.44076447 84.77125549 22.42445374 C83.67295294 25.47663127 82.55526518 28.52131005 81.4375 31.56640625 C80.71167338 33.57963969 79.98705193 35.59330806 79.26367188 37.60742188 C77.21280355 43.29523094 75.1220627 48.9672891 73 54.62890625 C72.70071594 55.42742004 72.40143188 56.22593384 72.09307861 57.04864502 C71.29337365 59.16460367 70.48065208 61.274842 69.66015625 63.3828125 C69.21422119 64.53209229 68.76828613 65.68137207 68.30883789 66.86547852 C67.08889859 69.44120934 66.29757591 70.97540432 64 72.62890625 C58.50480769 73.23948317 58.50480769 73.23948317 56 72.62890625 C52.05916499 69.46186287 50.6165131 65.73899631 49.01953125 61.08984375 C48.76121017 60.3677774 48.5028891 59.64571106 48.23674011 58.90176392 C47.41793949 56.60611781 46.61487211 54.30533961 45.8125 52.00390625 C44.99593838 49.69668124 44.17624972 47.3905857 43.35612488 45.08462524 C42.8480101 43.65217646 42.34263839 42.2187511 41.84028625 40.78427124 C40.57113424 37.14437132 40.57113424 37.14437132 39 33.62890625 C38.43285278 35.24116089 38.43285278 35.24116089 37.85424805 36.88598633 C36.4483333 40.87540538 35.03117484 44.86075237 33.6105957 48.8449707 C32.99749558 50.56946681 32.38744447 52.2950501 31.78051758 54.02172852 C30.90726499 56.50439349 30.02309826 58.98293368 29.13671875 61.4609375 C28.86784348 62.2329097 28.5989682 63.0048819 28.32194519 63.80024719 C25.98354142 70.27943187 25.98354142 70.27943187 23 72.62890625 C15.98266148 73.40861053 15.98266148 73.40861053 13.07324219 71.10009766 C10.39159207 67.90371725 9.15573212 64.47562785 7.79296875 60.59375 C7.50448563 59.80102188 7.2160025 59.00829376 6.91877747 58.19154358 C5.99779139 55.65350241 5.09233564 53.11024419 4.1875 50.56640625 C3.59153639 48.91433743 2.99453974 47.26264088 2.39648438 45.61132812 C1.49871764 43.13159411 0.60362835 40.65108955 -0.28225708 38.16708374 C-1.80925261 33.88835147 -3.37311358 29.62942588 -5.00927734 25.39111328 C-5.33425705 24.54029678 -5.65923676 23.68948029 -5.99406433 22.81288147 C-6.61205529 21.20017356 -7.2390147 19.59086166 -7.87666321 17.98582458 C-9.62986837 13.3826754 -10.45807744 9.63630213 -10 4.62890625 C-7.41070178 0.42129664 -4.59743872 0.15264933 0 0 Z " fill="#000000" transform="translate(328,219.37109375)"/>
<path d="M0 0 C3.575683 2.8282046 4.64510931 6.78798122 6.13671875 10.94921875 C6.42102249 11.72183548 6.70532623 12.49445221 6.99824524 13.29048157 C7.90249586 15.75336958 8.79511544 18.22029089 9.6875 20.6875 C10.29936769 22.36030515 10.91198918 24.03283478 11.52539062 25.70507812 C13.02568552 29.80024241 14.51556469 33.89906161 16 38 C19.71771313 30.02261829 22.69766578 21.81868054 25.64453125 13.53125 C29.37721422 3.32088697 29.37721422 3.32088697 33 0 C35 -0.6640625 35 -0.6640625 37 -0.625 C37.66 -0.63789063 38.32 -0.65078125 39 -0.6640625 C42.09804353 0.36458477 43.13658374 2.35837627 45 5 C46.09721545 7.4750411 47.07259162 9.87777049 47.98046875 12.41796875 C48.23878983 13.1164241 48.4971109 13.81487946 48.76325989 14.53450012 C49.58024541 16.74901508 50.38419601 18.96799012 51.1875 21.1875 C52.00438951 23.41658214 52.82388487 25.6446918 53.64387512 27.87263489 C54.15158598 29.25511641 54.65694848 30.63846311 55.15971375 32.02275085 C56.44620933 35.56752204 56.44620933 35.56752204 58 39 C58.56714722 37.38774536 58.56714722 37.38774536 59.14575195 35.74291992 C60.5516667 31.75350087 61.96882516 27.76815388 63.3894043 23.78393555 C64.00250442 22.05943944 64.61255553 20.33385615 65.21948242 18.60717773 C66.09273501 16.12451276 66.97690174 13.64597257 67.86328125 11.16796875 C68.13215652 10.39599655 68.4010318 9.62402435 68.67805481 8.82865906 C71.01645858 2.34947438 71.01645858 2.34947438 74 0 C80.75 -0.75 80.75 -0.75 84.5 1.5 C86.61738988 5.02898313 86.51984475 8.03019295 86 12 C84.76255619 16.47917011 83.14705601 20.79719335 81.51171875 25.14453125 C81.04718636 26.40353501 80.58356327 27.66287462 80.12080383 28.92253113 C79.15286453 31.54870147 78.17617188 34.1713835 77.19262695 36.79174805 C75.93384742 40.14665583 74.69419957 43.5082451 73.46057415 46.87247181 C72.5069997 49.46823075 71.54508548 52.06083413 70.58045387 54.65250206 C69.89701205 56.49182919 69.21929696 58.33328094 68.54167175 60.17475891 C68.12146255 61.28989365 67.70125336 62.40502838 67.26831055 63.55395508 C66.71870918 65.02666618 66.71870918 65.02666618 66.15800476 66.52912903 C65.0068339 68.98541829 64.17210194 70.39296147 62 72 C56.50480769 72.61057692 56.50480769 72.61057692 54 72 C50.06397219 68.8332349 48.59960674 65.10222324 46.984375 60.4609375 C46.72368225 59.73887115 46.4629895 59.01680481 46.19439697 58.27285767 C45.64809607 56.75344928 45.10715398 55.23210463 44.57128906 53.70898438 C43.74897515 51.37208752 42.91117536 49.04121673 42.0703125 46.7109375 C41.5407633 45.232094 41.01208665 43.75293771 40.484375 42.2734375 C40.1094693 41.22499161 40.1094693 41.22499161 39.72698975 40.15536499 C38 35.23565516 38 35.23565516 38 33 C37.34 33 36.68 33 36 33 C35.83491943 33.64976807 35.66983887 34.29953613 35.49975586 34.96899414 C33.57998378 42.28670595 31.20679334 49.35220648 28.5625 56.4375 C28.18029297 57.49904297 27.79808594 58.56058594 27.40429688 59.65429688 C27.02466797 60.67458984 26.64503906 61.69488281 26.25390625 62.74609375 C25.91689697 63.66060303 25.5798877 64.5751123 25.23266602 65.51733398 C23.8558236 68.29038024 22.33879927 69.98783259 20 72 C18 72.56640625 18 72.56640625 16 72.5625 C15.01 72.59537109 15.01 72.59537109 14 72.62890625 C10.92281956 71.66127724 9.85554244 69.57790767 8 67 C6.75970459 64.36454773 6.75970459 64.36454773 5.70996094 61.51049805 C5.30984802 60.43555588 4.90973511 59.36061371 4.49749756 58.25309753 C3.87225189 56.52486504 3.87225189 56.52486504 3.234375 54.76171875 C2.79611389 53.56698441 2.35785278 52.37225006 1.90631104 51.14131165 C0.98374165 48.61707473 0.06535071 46.0917418 -0.84667969 43.5637207 C-2.01043006 40.34044911 -3.19436206 37.12502932 -4.38422012 33.91131878 C-5.52344617 30.82418007 -6.64349163 27.73010318 -7.765625 24.63671875 C-8.19055237 23.49063644 -8.61547974 22.34455414 -9.05328369 21.16374207 C-11.18201718 15.20665749 -12.67471409 10.33762439 -12 4 C-8.99732176 -1.00446374 -5.31746703 -0.59082967 0 0 Z " fill="#000000" transform="translate(219,220)"/>
</svg>
